<svg width="46" height="39" viewBox="0 0 46 39" fill="none" xmlns="http://www.w3.org/2000/svg">
<path d="M18.3125 0.25C19.9957 0.25 21.3748 1.65212 21.375 3.34961V18.2998H34.0762L34.998 4.2832L35.0137 4.0498H40.0488L40.0645 4.2832L40.9863 18.2998H42V36.3496H45.75V38.75H0.25V36.3496H5.875V31.7412C4.95758 31.4142 4.18308 30.8817 3.59473 30.2109C2.59689 29.0732 2.12508 27.6011 2.125 26.1504C2.125 24.6995 2.59673 23.2268 3.59473 22.0889C4.18316 21.4181 4.95741 20.8847 5.875 20.5576V8.09961C5.87517 6.29404 7.06704 4.76973 8.6875 4.25293V3.34961C8.68771 1.65212 10.0668 0.25 11.75 0.25H18.3125ZM36.4561 18.2998H37.3125V20.7002H13.875V36.3496H39.625V20.7002H38.7637L38.748 20.4668L37.8262 6.4502H37.2363L36.4561 18.2998ZM11.5 30.9141C10.5845 31.608 9.4656 32.0402 8.25 32.0928V36.3496H11.5V30.9141ZM20.4375 27.7998V30.2002H16.1875V27.7998H20.4375ZM26.0625 27.7998V30.2002H21.8125V27.7998H26.0625ZM32.625 27.7998V30.2002H28.375V27.7998H32.625ZM38.25 27.7998V30.2002H34V27.7998H38.25ZM8 22.5996C6.74111 22.5996 5.93401 23.0415 5.37402 23.6797C4.80978 24.3229 4.5 25.2263 4.5 26.1504C4.50009 27.0743 4.80986 27.977 5.37402 28.6201C5.93401 29.2583 6.74104 29.7002 8 29.7002C9.94086 29.7002 11.4998 28.1252 11.5 26.1504C11.5 24.1754 9.94099 22.5996 8 22.5996ZM20.4375 23.0498V25.4502H16.1875V23.0498H20.4375ZM26.0625 23.0498V25.4502H21.8125V23.0498H26.0625ZM32.625 23.0498V25.4502H28.375V23.0498H32.625ZM38.25 23.0498V25.4502H34V23.0498H38.25ZM8.25 20.2061C9.46537 20.2586 10.5846 20.6911 11.5 21.3848V15H8.25V20.2061ZM11.75 2.65039C11.3616 2.65039 11.0627 2.94797 11.0625 3.34961V4.25293C12.683 4.76973 13.8748 6.29404 13.875 8.09961V18.2998H19V3.34961C18.9998 2.94797 18.7009 2.65039 18.3125 2.65039H11.75ZM9.875 6.4502C8.96944 6.4502 8.2502 7.1739 8.25 8.09961V12.5996H11.5V8.09961C11.4998 7.1739 10.7806 6.4502 9.875 6.4502Z" fill="#2C3E50" stroke="#2C3E50" stroke-width="0.5"/>
</svg>
