<svg width="35" height="38" viewBox="0 0 35 38" fill="none" xmlns="http://www.w3.org/2000/svg">
<path d="M7.96875 35.4666H28.2812" stroke="#2C3E50" stroke-width="3" stroke-linecap="round" stroke-linejoin="round"/>
<path d="M14.0625 35.4666C25.2344 30.3208 15.6875 22.2933 20.1562 14.8833" stroke="#2C3E50" stroke-width="3" stroke-linecap="round" stroke-linejoin="round"/>
<path d="M13.0469 13.6483C15.2812 15.295 16.7031 18.1767 17.7187 21.2642C13.6562 22.0875 10.6094 22.0875 7.96875 20.6467C5.53125 19.4117 3.29687 16.7358 1.875 12.0017C7.5625 10.9725 10.8125 12.0017 13.0469 13.6483Z" stroke="#2C3E50" stroke-width="3" stroke-linecap="round" stroke-linejoin="round"/>
<path d="M22.3907 6.65011C20.842 9.10274 20.063 11.9733 20.1563 14.8834C24.0157 14.6776 26.8594 13.6484 28.8907 12.0018C30.9219 9.94345 32.1407 7.26761 32.3438 2.53345C26.8594 2.73928 24.2188 4.59178 22.3907 6.65011Z" stroke="#2C3E50" stroke-width="3" stroke-linecap="round" stroke-linejoin="round"/>
</svg>
