<svg width="92" height="118" viewBox="0 0 92 118" fill="none" xmlns="http://www.w3.org/2000/svg">
<path d="M72.9215 28.3804H17.0957V50.3213H72.9215V28.3804Z" stroke="#2C3E50" stroke-width="6" stroke-linecap="round" stroke-linejoin="round"/>
<path d="M28.1182 78.0629C32.1461 78.0629 35.4113 74.9014 35.4113 71.0014C35.4113 67.1014 32.1461 63.9398 28.1182 63.9398C24.0904 63.9398 20.8252 67.1014 20.8252 71.0014C20.8252 74.9014 24.0904 78.0629 28.1182 78.0629Z" stroke="#2C3E50" stroke-width="6" stroke-linecap="round" stroke-linejoin="round"/>
<path d="M61.9981 78.063C66.0259 78.063 69.2911 74.9014 69.2911 71.0014C69.2911 67.1014 66.0259 63.9399 61.9981 63.9399C57.9703 63.9399 54.7051 67.1014 54.7051 71.0014C54.7051 74.9014 57.9703 78.063 61.9981 78.063Z" stroke="#2C3E50" stroke-width="6" stroke-linecap="round" stroke-linejoin="round"/>
<path d="M40.2441 15.5498H49.7726" stroke="#2C3E50" stroke-width="6" stroke-linecap="round" stroke-linejoin="round"/>
<path d="M65.5202 10.2001H60.6582L59.7404 7.95718C59.3261 6.94489 58.6072 6.0765 57.677 5.46461C56.7467 4.85271 55.6481 4.52556 54.5235 4.52557H35.494C34.3695 4.52556 33.2708 4.85271 32.3406 5.46461C31.4104 6.0765 30.6915 6.94489 30.2772 7.95718L29.3594 10.2001H24.4971C21.9346 10.2001 19.3972 10.6888 17.0298 11.6383C14.6624 12.5878 12.5113 13.9795 10.6994 15.734C8.88749 17.4884 7.4502 19.5713 6.46961 21.8635C5.48902 24.1558 4.98434 26.6127 4.98438 29.0938V74.3216C4.98438 78.7193 6.78864 82.9369 10.0002 86.0466C13.2119 89.1563 17.5677 90.9033 22.1096 90.9033H67.9076C72.4495 90.9033 76.8054 89.1563 80.017 86.0466C83.2286 82.9369 85.0329 78.7193 85.0329 74.3216V29.0938C85.0329 26.6127 84.5282 24.1558 83.5477 21.8635C82.5671 19.5713 81.1298 17.4884 79.3178 15.734C77.5059 13.9795 75.3548 12.5878 72.9874 11.6383C70.62 10.6888 68.0826 10.2001 65.5202 10.2001Z" stroke="#2C3E50" stroke-width="6" stroke-linecap="round" stroke-linejoin="round"/>
<path d="M30.075 90.9248L9.36816 113.496" stroke="#2C3E50" stroke-width="6" stroke-linecap="round" stroke-linejoin="round"/>
<path d="M72.9212 105.3H17.0957" stroke="#2C3E50" stroke-width="6" stroke-linecap="round" stroke-linejoin="round"/>
<path d="M66.2687 97.8601H23.7471" stroke="#2C3E50" stroke-width="6" stroke-linecap="round" stroke-linejoin="round"/>
<path d="M59.9414 90.9248L80.6483 113.496" stroke="#2C3E50" stroke-width="6" stroke-linecap="round" stroke-linejoin="round"/>
</svg>
