<svg width="108" height="111" viewBox="0 0 108 111" fill="none" xmlns="http://www.w3.org/2000/svg">
<path d="M88.1459 111H20.0762C15.5382 111 11.5675 105.714 11.5675 99.6735V61.9184C11.5675 59.6531 10.433 58.1429 8.73125 58.1429H3.05877C1.92428 58.1429 0.789782 57.3878 0.222534 55.8776C-0.344713 54.3674 0.222533 52.8571 1.35703 51.3469L49.0058 2.26531C51.8421 -0.755102 56.3801 -0.755102 59.2163 2.26531L106.865 51.3469C108 52.102 108 54.3674 108 55.8776C107.432 57.3878 106.298 58.1429 105.163 58.1429H99.4909C97.7891 58.1429 96.6546 59.6531 96.6546 61.9184V99.6735C96.6546 105.714 92.6839 111 88.1459 111ZM11.0002 50.5918C14.4037 52.102 17.24 56.6326 17.24 61.1633V98.9184C17.24 101.184 18.3745 102.694 20.0762 102.694H88.1459C89.8477 102.694 90.9822 101.184 90.9822 98.9184V61.1633C90.9822 55.8775 93.8184 51.3469 97.2219 50.5918L55.8128 7.55102C54.6783 6.79592 53.5438 6.79592 52.4093 7.55102L11.0002 50.5918Z" fill="#2C3E50"/>
<path d="M73.9658 107.224V77.0204C73.9658 70.9796 69.995 65.6938 65.457 65.6938H42.7671C38.2291 65.6938 34.2584 70.9796 34.2584 77.0204V107.224H28.5859V77.0204C28.5859 66.4489 34.8257 58.1428 42.7671 58.1428H65.457C73.3985 58.1428 79.6382 66.4489 79.6382 77.0204V107.224H73.9658Z" fill="#2C3E50"/>
<path d="M76.8017 73.2449H31.4219V80.7959H76.8017V73.2449Z" fill="#2C3E50"/>
<path d="M76.8017 88.3469H31.4219V95.8979H76.8017V88.3469Z" fill="#2C3E50"/>
</svg>
