<svg width="111" height="111" viewBox="0 0 111 111" fill="none" xmlns="http://www.w3.org/2000/svg">
<path d="M101.365 6.95991C102.498 6.95991 103.294 7.1723 103.711 7.33245C104.208 8.66246 104.878 13.4289 99.961 18.359L74.8766 43.4899L75.0573 46.6095C75.4396 53.1342 76.145 64.8257 76.7532 74.8495C77.2884 83.7731 77.7993 92.1988 77.834 92.9161C77.8514 93.4105 77.8583 93.5254 77.3996 94.0789C76.3744 95.3254 74.4595 97.4423 72.8505 99.1971C70.3483 92.446 65.0937 78.192 62.1919 70.2119L58.4629 59.9444L50.7478 67.6738L36.5618 81.3359L34.5844 83.3101L34.5219 86.1024C34.4732 88.3307 34.4836 92.3346 34.4906 95.8616C34.4975 98.3197 34.5045 100.555 34.4871 101.784C34.4558 101.843 34.9597 101.909 34.9146 101.989C34.6122 101.502 34.2855 100.98 33.9415 100.433C31.0814 95.8616 27.123 89.5423 25.9171 87.5682L25.0344 86.1233L23.5852 85.2459C18.3167 82.0567 12.4783 78.3765 8.91616 76.0751C9.03779 76.0055 9.13857 76.3815 9.22198 76.3362H9.45482C10.5773 76.3362 12.4296 76.3606 14.5044 76.3884C17.222 76.4267 20.3011 76.4685 22.6573 76.4685C23.5609 76.4685 24.3637 76.4616 25.0101 76.4476L27.8007 76.385L29.7747 74.4108L43.429 60.2995L51.1162 52.6015L40.9163 48.8413C33.2499 46.0141 18.567 40.5235 11.6964 37.9366C13.4583 36.3106 15.5817 34.3818 16.8189 33.3512C17.1629 33.0657 17.434 32.9194 17.6217 32.9194L17.8684 32.9264C18.6365 32.9647 28.1517 33.5845 37.3507 34.1903C47.1162 34.8309 58.1397 35.5481 64.4091 35.9485L67.5403 36.1435L92.6317 11.0056C96.1556 7.47869 99.6169 6.95295 101.368 6.95295L101.365 6.95991ZM101.365 0C97.2607 0 92.2181 1.58069 87.7177 6.09297L64.847 29.006C51.9642 28.1878 18.9701 26.0048 18.1499 25.9804C18.004 25.9735 17.8232 25.9665 17.6217 25.9665C16.5061 25.9665 14.5843 26.1789 12.3949 27.9928C9.8232 30.1202 4.46783 35.1721 4.46783 35.1721C3.17503 36.4708 2.52168 38.0793 2.67807 39.5939C2.7719 40.5061 3.26886 42.1738 5.50693 43.0512C6.86923 43.5839 28.5201 51.7032 38.5184 55.3868L24.8641 69.4982C24.2594 69.5121 23.5088 69.5191 22.6643 69.5191C18.5009 69.5191 12.0474 69.3833 9.4583 69.3833C9.11425 69.3833 8.8397 69.3833 8.64509 69.3902C7.8562 69.4146 6.22631 69.0247 1.92741 72.6247L1.62159 72.9102C0.332268 74.2019 0.0299208 75.4902 0.0021187 76.3432C-0.0256834 77.2206 0.207159 78.4844 1.47563 79.5011C2.23671 80.1173 11.9918 86.374 19.9953 91.217C21.9136 94.354 30.7408 108.41 31.203 109.172C31.8772 110.311 32.9754 110.962 34.2925 111H34.4002C35.6791 111 36.9928 110.363 38.2786 109.113C41.9172 104.851 41.4133 103.086 41.4307 102.341C41.4898 100.015 41.3924 90.162 41.4724 86.2556L55.6549 72.5899C59.2796 82.565 67.2032 104.033 67.7349 105.401C68.6176 107.647 70.2823 108.138 71.1928 108.232C71.3422 108.249 71.4951 108.256 71.6446 108.256C73.0173 108.256 74.4352 107.609 75.6029 106.446C75.6029 106.446 80.6246 101.105 82.7585 98.5077C84.8923 95.9103 84.8123 93.6925 84.7706 92.648C84.7533 91.9238 82.7411 59.0461 81.9939 46.2091L104.872 23.2891C112.979 15.1628 111.69 5.37226 108.68 2.36059C107.349 1.02014 104.66 0.0104451 101.372 0.0104451L101.365 0Z" fill="#2C3E50"/>
</svg>
