<svg width="30" height="39" viewBox="0 0 30 39" fill="none" xmlns="http://www.w3.org/2000/svg">
<path d="M10.4092 6.0459H10.9092C12.1252 6.04595 13.1367 7.06241 13.1367 8.31934V14.8359C13.1367 16.0914 12.641 17.3806 11.8584 18.5762L5.5918 27.4424L5.03418 28.2314H24.9658L24.4082 27.4424L18.1357 18.5684L18.1221 18.5488L18.1064 18.5312L17.9502 18.3408C17.1999 17.3739 16.8633 16.1805 16.8633 14.8359V8.31934C16.8633 7.06241 17.8748 6.04595 19.0908 6.0459H19.5908V2.27344H10.4092V6.0459ZM11.2725 7.81934H10.7725C9.55655 7.81919 8.5459 6.80276 8.5459 5.5459V2.77344C8.5459 1.51657 9.55655 0.500148 10.7725 0.5H18.9541C20.1701 0.5 21.1816 1.51648 21.1816 2.77344V5.5459C21.1816 6.80286 20.1701 7.81934 18.9541 7.81934H18.4541V14.8359C18.4541 15.8992 18.7542 16.8371 19.3672 17.624V17.625L28.7764 30.6582L28.7822 30.667L28.7891 30.6748C29.2581 31.271 29.5 31.991 29.5 32.8613V34.6641C29.4999 36.7528 27.9433 38.3232 25.9092 38.3232H4.09082C2.05671 38.3232 0.500097 36.7528 0.5 34.6641V32.8613C0.500003 32.0079 0.733399 31.2629 0.990234 30.6025L10.3604 17.625L10.3662 17.6152L10.373 17.6064C10.9613 16.7092 11.2725 15.783 11.2725 14.8359V7.81934Z" fill="#2C3E50" stroke="#2C3E50"/>
</svg>
