<svg width="42" height="38" viewBox="0 0 42 38" fill="none" xmlns="http://www.w3.org/2000/svg">
<mask id="path-1-inside-1_30_74" fill="white">
<path fill-rule="evenodd" clip-rule="evenodd" d="M1.90825e-07 5.89722C1.90825e-07 4.33318 0.622264 2.8332 1.7299 1.72725C2.83754 0.621312 4.33982 0 5.90625 0H24.2812C25.8477 0 27.35 0.621312 28.4576 1.72725C29.5652 2.8332 30.1875 4.33318 30.1875 5.89722V6.7569H31.8754C33.4089 6.7573 34.8821 7.3532 35.9835 8.4186L40.2045 12.4995C40.7727 13.0494 41.2244 13.7077 41.5328 14.4353C41.8413 15.1628 42.0001 15.9449 42 16.735V24.2441C42.0003 25.4418 41.5315 26.592 40.6937 27.4491C39.8559 28.3062 38.7156 28.8021 37.5165 28.8308C37.9515 29.8279 38.1311 30.9175 38.039 32.0012C37.947 33.0849 37.5862 34.1287 36.9893 35.0384C36.3924 35.9482 35.578 36.6952 34.6197 37.2123C33.6614 37.7293 32.5893 38 31.5 38C30.4107 38 29.3386 37.7293 28.3803 37.2123C27.422 36.6952 26.6076 35.9482 26.0107 35.0384C25.4138 34.1287 25.053 33.0849 24.961 32.0012C24.8689 30.9175 25.0485 29.8279 25.4835 28.8308H16.5165C16.9515 29.8279 17.1311 30.9175 17.039 32.0012C16.947 33.0849 16.5862 34.1287 15.9893 35.0384C15.3924 35.9482 14.578 36.6952 13.6197 37.2123C12.6614 37.7293 11.5893 38 10.5 38C9.41074 38 8.3386 37.7293 7.38029 37.2123C6.42198 36.6952 5.60764 35.9482 5.0107 35.0384C4.41376 34.1287 4.05301 33.0849 3.96097 32.0012C3.86893 30.9175 4.04851 29.8279 4.4835 28.8308C3.28437 28.8021 2.14406 28.3062 1.30627 27.4491C0.468474 26.592 -0.000345306 25.4418 1.90825e-07 24.2441V5.89722ZM31.5 28.8308C30.8038 28.8308 30.1361 29.107 29.6438 29.5985C29.1516 30.09 28.875 30.7567 28.875 31.4518C28.875 32.1469 29.1516 32.8136 29.6438 33.3051C30.1361 33.7967 30.8038 34.0728 31.5 34.0728C32.1962 34.0728 32.8639 33.7967 33.3562 33.3051C33.8484 32.8136 34.125 32.1469 34.125 31.4518C34.125 30.7567 33.8484 30.09 33.3562 29.5985C32.8639 29.107 32.1962 28.8308 31.5 28.8308ZM37.4062 24.8994C37.5803 24.8994 37.7472 24.8303 37.8703 24.7074C37.9934 24.5846 38.0625 24.4179 38.0625 24.2441V16.735C38.0623 16.4719 38.0092 16.2116 37.9064 15.9694C37.8036 15.7271 37.6532 15.508 37.464 15.3249L33.243 11.2414C32.8762 10.887 32.3858 10.6887 31.8754 10.6884H30.1875V24.8994H37.4062ZM26.25 24.8994H4.59375C4.4197 24.8994 4.25278 24.8303 4.12971 24.7074C4.00664 24.5846 3.9375 24.4179 3.9375 24.2441V5.89722C3.9375 5.37587 4.14492 4.87588 4.51413 4.50723C4.88335 4.13858 5.38411 3.93148 5.90625 3.93148H24.2812C24.8034 3.93148 25.3042 4.13858 25.6734 4.50723C26.0426 4.87588 26.25 5.37587 26.25 5.89722V24.8994ZM7.875 31.4518C7.875 30.7567 8.15156 30.09 8.64384 29.5985C9.13613 29.107 9.80381 28.8308 10.5 28.8308C11.1962 28.8308 11.8639 29.107 12.3562 29.5985C12.8484 30.09 13.125 30.7567 13.125 31.4518C13.125 32.1469 12.8484 32.8136 12.3562 33.3051C11.8639 33.7967 11.1962 34.0728 10.5 34.0728C9.80381 34.0728 9.13613 33.7967 8.64384 33.3051C8.15156 32.8136 7.875 32.1469 7.875 31.4518Z"/>
</mask>
<path fill-rule="evenodd" clip-rule="evenodd" d="M1.90825e-07 5.89722C1.90825e-07 4.33318 0.622264 2.8332 1.7299 1.72725C2.83754 0.621312 4.33982 0 5.90625 0H24.2812C25.8477 0 27.35 0.621312 28.4576 1.72725C29.5652 2.8332 30.1875 4.33318 30.1875 5.89722V6.7569H31.8754C33.4089 6.7573 34.8821 7.3532 35.9835 8.4186L40.2045 12.4995C40.7727 13.0494 41.2244 13.7077 41.5328 14.4353C41.8413 15.1628 42.0001 15.9449 42 16.735V24.2441C42.0003 25.4418 41.5315 26.592 40.6937 27.4491C39.8559 28.3062 38.7156 28.8021 37.5165 28.8308C37.9515 29.8279 38.1311 30.9175 38.039 32.0012C37.947 33.0849 37.5862 34.1287 36.9893 35.0384C36.3924 35.9482 35.578 36.6952 34.6197 37.2123C33.6614 37.7293 32.5893 38 31.5 38C30.4107 38 29.3386 37.7293 28.3803 37.2123C27.422 36.6952 26.6076 35.9482 26.0107 35.0384C25.4138 34.1287 25.053 33.0849 24.961 32.0012C24.8689 30.9175 25.0485 29.8279 25.4835 28.8308H16.5165C16.9515 29.8279 17.1311 30.9175 17.039 32.0012C16.947 33.0849 16.5862 34.1287 15.9893 35.0384C15.3924 35.9482 14.578 36.6952 13.6197 37.2123C12.6614 37.7293 11.5893 38 10.5 38C9.41074 38 8.3386 37.7293 7.38029 37.2123C6.42198 36.6952 5.60764 35.9482 5.0107 35.0384C4.41376 34.1287 4.05301 33.0849 3.96097 32.0012C3.86893 30.9175 4.04851 29.8279 4.4835 28.8308C3.28437 28.8021 2.14406 28.3062 1.30627 27.4491C0.468474 26.592 -0.000345306 25.4418 1.90825e-07 24.2441V5.89722ZM31.5 28.8308C30.8038 28.8308 30.1361 29.107 29.6438 29.5985C29.1516 30.09 28.875 30.7567 28.875 31.4518C28.875 32.1469 29.1516 32.8136 29.6438 33.3051C30.1361 33.7967 30.8038 34.0728 31.5 34.0728C32.1962 34.0728 32.8639 33.7967 33.3562 33.3051C33.8484 32.8136 34.125 32.1469 34.125 31.4518C34.125 30.7567 33.8484 30.09 33.3562 29.5985C32.8639 29.107 32.1962 28.8308 31.5 28.8308ZM37.4062 24.8994C37.5803 24.8994 37.7472 24.8303 37.8703 24.7074C37.9934 24.5846 38.0625 24.4179 38.0625 24.2441V16.735C38.0623 16.4719 38.0092 16.2116 37.9064 15.9694C37.8036 15.7271 37.6532 15.508 37.464 15.3249L33.243 11.2414C32.8762 10.887 32.3858 10.6887 31.8754 10.6884H30.1875V24.8994H37.4062ZM26.25 24.8994H4.59375C4.4197 24.8994 4.25278 24.8303 4.12971 24.7074C4.00664 24.5846 3.9375 24.4179 3.9375 24.2441V5.89722C3.9375 5.37587 4.14492 4.87588 4.51413 4.50723C4.88335 4.13858 5.38411 3.93148 5.90625 3.93148H24.2812C24.8034 3.93148 25.3042 4.13858 25.6734 4.50723C26.0426 4.87588 26.25 5.37587 26.25 5.89722V24.8994ZM7.875 31.4518C7.875 30.7567 8.15156 30.09 8.64384 29.5985C9.13613 29.107 9.80381 28.8308 10.5 28.8308C11.1962 28.8308 11.8639 29.107 12.3562 29.5985C12.8484 30.09 13.125 30.7567 13.125 31.4518C13.125 32.1469 12.8484 32.8136 12.3562 33.3051C11.8639 33.7967 11.1962 34.0728 10.5 34.0728C9.80381 34.0728 9.13613 33.7967 8.64384 33.3051C8.15156 32.8136 7.875 32.1469 7.875 31.4518Z" fill="#2C3E50"/>
<path d="M1.90825e-07 5.89722H-50H1.90825e-07ZM5.90625 0V-50V0ZM24.2812 0V-50V0ZM30.1875 6.7569H-19.8125V56.7569H30.1875V6.7569ZM31.8754 6.7569L31.8883 -43.2431H31.8754V6.7569ZM35.9835 8.4186L1.22029 44.3563L1.22987 44.3656L35.9835 8.4186ZM40.2045 12.4995L74.977 -23.4292L74.9676 -23.4384L74.9581 -23.4475L40.2045 12.4995ZM42 16.735L-8 16.726V16.735H42ZM42 24.2441H-8V24.2513L-8 24.2585L42 24.2441ZM37.5165 28.8308L36.3183 -21.1548L-38.063 -19.3719L-8.3123 48.8239L37.5165 28.8308ZM31.5 38V-12V38ZM25.4835 28.8308L71.3123 48.8239L101.847 -21.1692H25.4835V28.8308ZM16.5165 28.8308V-21.1692H-59.8471L-29.3123 48.8239L16.5165 28.8308ZM10.5 38V-12V38ZM4.4835 28.8308L50.3123 48.8239L80.063 -19.3719L5.68166 -21.1548L4.4835 28.8308ZM1.90825e-07 24.2441L50 24.2585V24.2513V24.2441H1.90825e-07ZM38.0625 16.735H88.0625V16.7172L88.0625 16.6995L38.0625 16.735ZM37.464 15.3249L72.2365 -20.6038L72.2292 -20.6109L37.464 15.3249ZM33.243 11.2414L68.0082 -24.6944L67.9957 -24.7065L67.9833 -24.7185L33.243 11.2414ZM31.8754 10.6884L31.9097 -39.3116L31.8926 -39.3116H31.8754V10.6884ZM30.1875 10.6884V-39.3116H-19.8125V10.6884H30.1875ZM30.1875 24.8994H-19.8125V74.8994H30.1875V24.8994ZM26.25 24.8994V74.8994H76.25V24.8994H26.25ZM5.90625 3.93148V-46.0685V3.93148ZM7.875 31.4518H-42.125H7.875ZM13.125 31.4518H-36.875H13.125ZM1.90825e-07 5.89722H50C50 17.6187 45.3358 28.8447 37.0582 37.1096L1.7299 1.72725L-33.5984 -33.6551C-44.0913 -23.1783 -50 -8.95237 -50 5.89722H1.90825e-07ZM1.7299 1.72725L37.0582 37.1096C28.7831 45.372 17.576 50 5.90625 50V0V-50C-8.89633 -50 -23.108 -44.1294 -33.5984 -33.6551L1.7299 1.72725ZM5.90625 0V50H24.2812V0V-50H5.90625V0ZM24.2812 0V50C12.6115 50 1.40438 45.372 -6.87067 37.1096L28.4576 1.72725L63.7859 -33.6551C53.2955 -44.1294 39.0838 -50 24.2812 -50V0ZM28.4576 1.72725L-6.87067 37.1096C-15.1483 28.8447 -19.8125 17.6187 -19.8125 5.89722H30.1875H80.1875C80.1875 -8.95238 74.2788 -23.1783 63.7859 -33.6551L28.4576 1.72725ZM30.1875 5.89722H-19.8125V6.7569H30.1875H80.1875V5.89722H30.1875ZM30.1875 6.7569V56.7569H31.8754V6.7569V-43.2431H30.1875V6.7569ZM31.8754 6.7569L31.8625 56.7569C20.438 56.754 9.44803 52.3152 1.22029 44.3563L35.9835 8.4186L70.7467 -27.5191C60.3162 -37.6087 46.3798 -43.2394 31.8883 -43.2431L31.8754 6.7569ZM35.9835 8.4186L1.22987 44.3656L5.45087 48.4464L40.2045 12.4995L74.9581 -23.4475L70.7371 -27.5284L35.9835 8.4186ZM40.2045 12.4995L5.43198 48.4282C1.18676 44.3196 -2.19267 39.3968 -4.50165 33.95L41.5328 14.4353L87.5673 -5.07949C84.6415 -11.9815 80.3586 -18.2208 74.977 -23.4292L40.2045 12.4995ZM41.5328 14.4353L-4.50165 33.95C-6.81071 28.503 -8.00107 22.6455 -8 16.726L42 16.735L92 16.744C92.0014 9.2443 90.4933 1.82267 87.5673 -5.07949L41.5328 14.4353ZM42 16.735H-8V24.2441H42H92V16.735H42ZM42 24.2441L-8 24.2585C-8.00343 12.3764 -3.35142 0.979011 4.93835 -7.50161L40.6937 27.4491L76.4491 62.3998C86.4145 52.205 92.0041 38.5071 92 24.2297L42 24.2441ZM40.6937 27.4491L4.93835 -7.50161C13.2257 -15.9798 24.4898 -20.8713 36.3183 -21.1548L37.5165 28.8308L38.7147 78.8165C52.9415 78.4755 66.4861 72.5922 76.4491 62.3998L40.6937 27.4491ZM37.5165 28.8308L-8.3123 48.8239C-11.1997 42.2053 -12.393 34.9693 -11.7816 27.77L38.039 32.0012L87.8597 36.2324C88.6552 26.8656 87.1027 17.4506 83.3453 8.8378L37.5165 28.8308ZM38.039 32.0012L-11.7816 27.77C-11.1702 20.5708 -8.77392 13.6419 -4.8147 7.60804L36.9893 35.0384L78.7933 62.4688C83.9464 54.6155 87.0642 45.599 87.8597 36.2324L38.039 32.0012ZM36.9893 35.0384L-4.8147 7.60804C-0.855778 1.57464 4.53953 -3.37179 10.8787 -6.79187L34.6197 37.2123L58.3607 81.2164C66.6165 76.7622 73.6405 70.3217 78.7933 62.4688L36.9893 35.0384ZM34.6197 37.2123L10.8787 -6.79187C17.2174 -10.2117 24.304 -12 31.5 -12V38V88C40.8746 88 50.1054 85.6703 58.3607 81.2164L34.6197 37.2123ZM31.5 38V-12C38.696 -12 45.7826 -10.2117 52.1213 -6.79187L28.3803 37.2123L4.63926 81.2164C12.8946 85.6703 22.1254 88 31.5 88V38ZM28.3803 37.2123L52.1213 -6.79187C58.4605 -3.37179 63.8558 1.57464 67.8147 7.60804L26.0107 35.0384L-15.7933 62.4688C-10.6405 70.3217 -3.61651 76.7622 4.63926 81.2164L28.3803 37.2123ZM26.0107 35.0384L67.8147 7.60804C71.7739 13.6419 74.1702 20.5708 74.7816 27.77L24.961 32.0012L-24.8597 36.2324C-24.0642 45.599 -20.9464 54.6155 -15.7933 62.4688L26.0107 35.0384ZM24.961 32.0012L74.7816 27.77C75.393 34.9693 74.1997 42.2053 71.3123 48.8239L25.4835 28.8308L-20.3453 8.8378C-24.1027 17.4506 -25.6552 26.8656 -24.8597 36.2324L24.961 32.0012ZM25.4835 28.8308V-21.1692H16.5165V28.8308V78.8308H25.4835V28.8308ZM16.5165 28.8308L-29.3123 48.8239C-32.1996 42.2054 -33.393 34.9694 -32.7816 27.77L17.039 32.0012L66.8597 36.2324C67.6552 26.8656 66.1026 17.4505 62.3453 8.8378L16.5165 28.8308ZM17.039 32.0012L-32.7816 27.77C-32.1702 20.5708 -29.7739 13.6419 -25.8147 7.60804L15.9893 35.0384L57.7933 62.4688C62.9464 54.6155 66.0642 45.599 66.8597 36.2324L17.039 32.0012ZM15.9893 35.0384L-25.8147 7.60804C-21.8558 1.57464 -16.4605 -3.37179 -10.1213 -6.79187L13.6197 37.2123L37.3607 81.2164C45.6165 76.7622 52.6405 70.3217 57.7933 62.4688L15.9893 35.0384ZM13.6197 37.2123L-10.1213 -6.79187C-3.78257 -10.2117 3.30397 -12 10.5 -12V38V88C19.8746 88 29.1054 85.6703 37.3607 81.2164L13.6197 37.2123ZM10.5 38V-12C17.696 -12 24.7826 -10.2117 31.1213 -6.79187L7.38029 37.2123L-16.3607 81.2164C-8.10537 85.6703 1.12544 88 10.5 88V38ZM7.38029 37.2123L31.1213 -6.79187C37.4605 -3.3718 42.8558 1.57462 46.8147 7.60804L5.0107 35.0384L-36.7933 62.4688C-31.6405 70.3217 -24.6165 76.7623 -16.3607 81.2164L7.38029 37.2123ZM5.0107 35.0384L46.8147 7.60804C50.7739 13.6419 53.1702 20.5708 53.7816 27.77L3.96097 32.0012L-45.8597 36.2324C-45.0642 45.599 -41.9464 54.6155 -36.7933 62.4688L5.0107 35.0384ZM3.96097 32.0012L53.7816 27.77C54.393 34.9693 53.1997 42.2053 50.3123 48.8239L4.4835 28.8308L-41.3453 8.8378C-45.1026 17.4505 -46.6552 26.8656 -45.8597 36.2324L3.96097 32.0012ZM4.4835 28.8308L5.68166 -21.1548C17.5102 -20.8713 28.7743 -15.9798 37.0617 -7.50161L1.30627 27.4491L-34.4491 62.3998C-24.4861 72.5922 -10.9415 78.4755 3.28534 78.8165L4.4835 28.8308ZM1.30627 27.4491L37.0617 -7.50161C45.3514 0.979038 50.0034 12.3765 50 24.2585L1.90825e-07 24.2441L-50 24.2297C-50.0041 38.507 -44.4145 52.205 -34.4491 62.3998L1.30627 27.4491ZM1.90825e-07 24.2441H50V5.89722H1.90825e-07H-50V24.2441H1.90825e-07ZM31.5 28.8308V-21.1692C17.5676 -21.1692 4.19052 -15.6437 -5.68442 -5.78388L29.6438 29.5985L64.9721 64.9809C56.0817 73.8577 44.04 78.8308 31.5 78.8308V28.8308ZM29.6438 29.5985L-5.68442 -5.78388C-15.5619 4.07853 -21.125 17.4711 -21.125 31.4518H28.875H78.875C78.875 44.0423 73.8651 56.1015 64.9721 64.9809L29.6438 29.5985ZM28.875 31.4518H-21.125C-21.125 45.4325 -15.5619 58.8251 -5.68442 68.6875L29.6438 33.3051L64.9721 -2.07725C73.8651 6.8021 78.875 18.8614 78.875 31.4518H28.875ZM29.6438 33.3051L-5.68442 68.6875C4.19052 78.5474 17.5676 84.0728 31.5 84.0728V34.0728V-15.9272C44.04 -15.9272 56.0817 -10.954 64.9721 -2.07725L29.6438 33.3051ZM31.5 34.0728V84.0728C45.4324 84.0728 58.8095 78.5474 68.6844 68.6875L33.3562 33.3051L-1.97212 -2.07725C6.91826 -10.954 18.96 -15.9272 31.5 -15.9272V34.0728ZM33.3562 33.3051L68.6844 68.6875C78.562 58.8251 84.125 45.4325 84.125 31.4518H34.125H-15.875C-15.875 18.8614 -10.8651 6.8021 -1.97212 -2.07725L33.3562 33.3051ZM34.125 31.4518H84.125C84.125 17.4711 78.562 4.07853 68.6844 -5.78388L33.3562 29.5985L-1.97212 64.9809C-10.8651 56.1015 -15.875 44.0423 -15.875 31.4518H34.125ZM33.3562 29.5985L68.6844 -5.78388C58.8095 -15.6437 45.4324 -21.1692 31.5 -21.1692V28.8308V78.8308C18.96 78.8308 6.91826 73.8577 -1.97212 64.9809L33.3562 29.5985ZM37.4062 24.8994V74.8994C50.8163 74.8994 63.6927 69.5811 73.1986 60.0898L37.8703 24.7074L2.54202 -10.6749C11.8017 -19.9205 24.3443 -25.1006 37.4062 -25.1006V24.8994ZM37.8703 24.7074L73.1986 60.0898C82.707 50.5959 88.0625 37.7033 88.0625 24.2441H38.0625H-11.9375C-11.9375 11.1325 -6.72027 -1.42682 2.54202 -10.6749L37.8703 24.7074ZM38.0625 24.2441H88.0625V16.735H38.0625H-11.9375V24.2441H38.0625ZM38.0625 16.735L88.0625 16.6995C88.0575 9.73417 86.6523 2.84271 83.9322 -3.56588L37.9064 15.9694L-8.11936 35.5046C-10.6338 29.5804 -11.9329 23.2097 -11.9375 16.7705L38.0625 16.735ZM37.9064 15.9694L83.9322 -3.56588C81.2122 -9.97429 77.2338 -15.7673 72.2365 -20.6038L37.464 15.3249L2.69149 51.2536C-1.92746 46.7833 -5.60499 41.4286 -8.11936 35.5046L37.9064 15.9694ZM37.464 15.3249L72.2292 -20.6109L68.0082 -24.6944L33.243 11.2414L-1.52216 47.1772L2.69885 51.2607L37.464 15.3249ZM33.243 11.2414L67.9833 -24.7185C58.2948 -34.0783 45.3598 -39.3024 31.9097 -39.3116L31.8754 10.6884L31.841 60.6884C19.4119 60.6798 7.45748 55.8523 -1.49725 47.2013L33.243 11.2414ZM31.8754 10.6884V-39.3116H30.1875V10.6884V60.6884H31.8754V10.6884ZM30.1875 10.6884H-19.8125V24.8994H30.1875H80.1875V10.6884H30.1875ZM30.1875 24.8994V74.8994H37.4062V24.8994V-25.1006H30.1875V24.8994ZM26.25 24.8994V-25.1006H4.59375V24.8994V74.8994H26.25V24.8994ZM4.59375 24.8994V-25.1006C17.6558 -25.1006 30.1983 -19.9205 39.458 -10.6749L4.12971 24.7074L-31.1986 60.0898C-21.6927 69.5811 -8.81636 74.8994 4.59375 74.8994V24.8994ZM4.12971 24.7074L39.458 -10.6749C48.7202 -1.42691 53.9375 11.1324 53.9375 24.2441H3.9375H-46.0625C-46.0625 37.7034 -40.7069 50.596 -31.1986 60.0898L4.12971 24.7074ZM3.9375 24.2441H53.9375V5.89722H3.9375H-46.0625V24.2441H3.9375ZM3.9375 5.89722H53.9375C53.9375 18.6614 48.8585 30.8874 39.8424 39.8896L4.51413 4.50723L-30.8141 -30.8752C-40.5686 -21.1356 -46.0625 -7.90967 -46.0625 5.89722H3.9375ZM4.51413 4.50723L39.8424 39.8896C30.8289 48.8893 18.6202 53.9315 5.90625 53.9315V3.93148V-46.0685C-7.85204 -46.0685 -21.0622 -40.6121 -30.8141 -30.8752L4.51413 4.50723ZM5.90625 3.93148V53.9315H24.2812V3.93148V-46.0685H5.90625V3.93148ZM24.2812 3.93148V53.9315C11.5672 53.9315 -0.641439 48.8893 -9.6549 39.8896L25.6734 4.50723L61.0016 -30.8752C51.2497 -40.6121 38.0396 -46.0685 24.2812 -46.0685V3.93148ZM25.6734 4.50723L-9.6549 39.8896C-18.6709 30.8874 -23.75 18.6615 -23.75 5.89722H26.25H76.25C76.25 -7.90973 70.7561 -21.1356 61.0016 -30.8752L25.6734 4.50723ZM26.25 5.89722H-23.75V24.8994H26.25H76.25V5.89722H26.25ZM7.875 31.4518H57.875C57.875 44.0422 52.8651 56.1015 43.9721 64.9809L8.64384 29.5985L-26.6844 -5.78388C-36.562 4.07855 -42.125 17.4711 -42.125 31.4518H7.875ZM8.64384 29.5985L43.9721 64.9809C35.0817 73.8577 23.04 78.8308 10.5 78.8308V28.8308V-21.1692C-3.43236 -21.1692 -16.8095 -15.6437 -26.6844 -5.78388L8.64384 29.5985ZM10.5 28.8308V78.8308C-2.03999 78.8308 -14.0817 73.8577 -22.9721 64.9809L12.3562 29.5985L47.6844 -5.78388C37.8095 -15.6437 24.4324 -21.1692 10.5 -21.1692V28.8308ZM12.3562 29.5985L-22.9721 64.9809C-31.8651 56.1015 -36.875 44.0423 -36.875 31.4518H13.125H63.125C63.125 17.4711 57.5619 4.07853 47.6844 -5.78388L12.3562 29.5985ZM13.125 31.4518H-36.875C-36.875 18.8614 -31.8651 6.8021 -22.9721 -2.07725L12.3562 33.3051L47.6844 68.6875C57.5619 58.8251 63.125 45.4325 63.125 31.4518H13.125ZM12.3562 33.3051L-22.9721 -2.07725C-14.0817 -10.954 -2.03999 -15.9272 10.5 -15.9272V34.0728V84.0728C24.4324 84.0728 37.8095 78.5474 47.6844 68.6875L12.3562 33.3051ZM10.5 34.0728V-15.9272C23.04 -15.9272 35.0817 -10.954 43.9721 -2.07725L8.64384 33.3051L-26.6844 68.6875C-16.8095 78.5474 -3.43236 84.0728 10.5 84.0728V34.0728ZM8.64384 33.3051L43.9721 -2.07725C52.8651 6.80213 57.875 18.8614 57.875 31.4518H7.875H-42.125C-42.125 45.4325 -36.562 58.8251 -26.6844 68.6875L8.64384 33.3051Z" fill="#2C3E50" mask="url(#path-1-inside-1_30_74)"/>
</svg>
