<svg width="124" height="113" viewBox="0 0 124 113" fill="none" xmlns="http://www.w3.org/2000/svg">
<path d="M52.8496 0.5C57.0248 0.5 61.0297 2.15851 63.9854 5.11133L63.9863 5.1123L90.9199 32.085H95.5508C99.7265 32.0894 103.73 33.7523 106.683 36.709C109.635 39.6658 111.295 43.6751 111.3 47.8564V56.9307C114.694 57.7212 117.736 59.6134 119.944 62.3223C122.239 65.1371 123.495 68.6582 123.5 72.292V72.293C123.495 75.9266 122.24 79.4479 119.945 82.2627C117.737 84.9716 114.694 86.8628 111.3 87.6533V96.7285C111.295 100.91 109.635 104.919 106.683 107.876C103.73 110.833 99.7265 112.496 95.5508 112.5H16.249C12.0733 112.496 8.06968 110.833 5.11719 107.876C2.16464 104.919 0.50437 100.91 0.5 96.7285V47.8555L0.505859 47.4883C0.605747 43.7002 2.06744 40.0703 4.62988 37.2705C7.23374 34.4255 10.7894 32.6397 14.6191 32.248L41.7139 5.1123V5.11133C44.6694 2.1584 48.6744 0.500103 52.8496 0.5ZM15.8223 39.2051C13.685 39.3134 11.6573 40.2116 10.1367 41.7344C8.51511 43.3585 7.60225 45.5604 7.59961 47.8574V96.7275L7.61133 97.1572C7.71961 99.2979 8.61634 101.329 10.1367 102.852C11.7585 104.476 13.9578 105.389 16.251 105.392H95.5498L95.9785 105.38C98.1154 105.272 100.143 104.374 101.663 102.852C103.285 101.227 104.198 99.0247 104.2 96.7275V88.0645H95.5498C91.3725 88.0644 87.3667 86.4022 84.4131 83.4443C81.4595 80.4864 79.7998 76.4747 79.7998 72.292C79.7999 68.1094 81.4596 64.0984 84.4131 61.1406C87.3667 58.1827 91.3725 56.5206 95.5498 56.5205H104.2V47.8574L104.188 47.4277C104.08 45.2872 103.183 43.2569 101.663 41.7344C100.143 40.2118 98.1155 39.3136 95.9785 39.2051L95.5498 39.1934H16.251L15.8223 39.2051ZM95.5498 63.6289C93.256 63.629 91.0558 64.5415 89.4336 66.166C87.8114 67.7905 86.9005 69.9943 86.9004 72.292C86.9004 74.5899 87.8113 76.7943 89.4336 78.4189C91.0558 80.0434 93.256 80.956 95.5498 80.9561H107.75C110.044 80.9561 112.244 80.0434 113.866 78.4189C115.488 76.7943 116.4 74.5899 116.4 72.292C116.4 69.9943 115.488 67.7905 113.866 66.166C112.244 64.5415 110.044 63.6289 107.75 63.6289H95.5498ZM52.8535 7.60449C50.704 7.60449 48.6362 8.40506 47.0488 9.8418L46.7373 10.1377L24.8193 32.085H80.8809L58.9688 10.1377C57.3457 8.5154 55.1463 7.60462 52.8535 7.60449Z" fill="#2C3E50" stroke="#2C3E50"/>
</svg>
